<svg width="1200" height="800" viewBox="0 0 1200 800" fill="none" xmlns="http://www.w3.org/2000/svg">
  <rect width="1200" height="800" rx="40" fill="#0f1722"/>
  <rect x="48" y="48" width="1104" height="704" rx="30" stroke="#2b3c4d" stroke-width="2"/>
  <circle cx="130" cy="120" r="10" fill="#7ce8c8" fill-opacity="0.7"/>
  <circle cx="166" cy="120" r="10" fill="#334155"/>
  <circle cx="202" cy="120" r="10" fill="#334155"/>
  <path d="M130 620C230 540 290 560 380 510C490 450 540 500 630 440C720 380 820 420 920 350C980 308 1040 295 1080 260" stroke="#7ce8c8" stroke-width="8" stroke-linecap="round"/>
  <rect x="96" y="180" width="430" height="44" rx="12" fill="#1d2938"/>
  <rect x="96" y="250" width="320" height="26" rx="8" fill="#1d2938"/>
  <rect x="96" y="290" width="210" height="26" rx="8" fill="#1d2938"/>
  <text x="96" y="695" fill="#93A4B8" font-size="34" font-family="Inter, sans-serif">Mint Investment Strategies — Preview</text>
</svg>
